<?xml version="1.0" encoding="UTF-8"?>
<svg xmlns="http://www.w3.org/2000/svg" xmlns:xlink="http://www.w3.org/1999/xlink" width="30px" height="30px" viewBox="0 0 30 30" version="1.1">
<defs>
<filter id="alpha" filterUnits="objectBoundingBox" x="0%" y="0%" width="100%" height="100%">
  <feColorMatrix type="matrix" in="SourceGraphic" values="0 0 0 0 1 0 0 0 0 1 0 0 0 0 1 0 0 0 1 0"/>
</filter>
<mask id="mask0">
  <g filter="url(#alpha)">
<rect x="0" y="0" width="30" height="30" style="fill:rgb(0%,0%,0%);fill-opacity:0.2;stroke:none;"/>
  </g>
</mask>
<clipPath id="clip1">
  <rect x="0" y="0" width="30" height="30"/>
</clipPath>
<g id="surface5" clip-path="url(#clip1)">
<path style="fill-rule:nonzero;fill:rgb(0%,0%,0%);fill-opacity:1;stroke-width:0.00512;stroke-linecap:butt;stroke-linejoin:miter;stroke:rgb(0%,0%,0%);stroke-opacity:1;stroke-miterlimit:4;" d="M 432.08 230.64 L 272 394 L 111.92 230.64 L 161.92 181.84 L 272 294.24 L 382.08 181.84 Z M 432.08 230.64 " transform="matrix(0.0488281,0,0,0.0488281,2.5,2.5)"/>
</g>
</defs>
<g id="surface1">
<path style="fill-rule:nonzero;fill:rgb(85.882353%,16.862745%,25.882353%);fill-opacity:1;stroke-width:0.00512;stroke-linecap:butt;stroke-linejoin:miter;stroke:rgb(0%,0%,0%);stroke-opacity:1;stroke-miterlimit:4;" d="M 256 -0.000000000000007105 C 114.64 -0.000000000000007105 -0.000000000000007105 114.64 -0.000000000000007105 256 C -0.000000000000007105 397.36 114.64 512 256 512 C 397.36 512 512 397.36 512 256 C 512 114.64 397.36 -0.000000000000007105 256 -0.000000000000007105 Z M 256 -0.000000000000007105 " transform="matrix(0.0488281,0,0,0.0488281,2.5,2.5)"/>
<use xlink:href="#surface5" mask="url(#mask0)"/>
<path style="fill-rule:nonzero;fill:rgb(100%,100%,100%);fill-opacity:1;stroke-width:0.00512;stroke-linecap:butt;stroke-linejoin:miter;stroke:rgb(0%,0%,0%);stroke-opacity:1;stroke-miterlimit:4;" d="M 416.08 214.64 L 256 378 L 95.92 214.64 L 145.92 165.84 L 256 278.24 L 366.08 165.84 Z M 416.08 214.64 " transform="matrix(0.0488281,0,0,0.0488281,2.5,2.5)"/>
</g>
</svg>
