<?xml version="1.0" encoding="UTF-8"?>
<svg xmlns="http://www.w3.org/2000/svg" xmlns:xlink="http://www.w3.org/1999/xlink" width="30px" height="30px" viewBox="0 0 30 30" version="1.1">
<g id="surface1">
<path style=" stroke:none;fill-rule:nonzero;fill:rgb(100%,50.196078%,50.196078%);fill-opacity:1;" d="M 24.152344 20.644531 C 23.417969 20.867188 22.695312 21.246094 21.96875 21.96875 C 21.023438 22.921875 20.652344 23.867188 20.488281 24.84375 C 20.328125 25.820312 20.40625 26.816406 20.425781 27.773438 C 20.425781 27.933594 20.425781 28.09375 20.421875 28.25 L 28.25 20.421875 C 28 20.429688 27.75 20.425781 27.5 20.417969 C 26.398438 20.386719 25.25 20.320312 24.152344 20.644531 Z M 24.152344 20.644531 "/>
<path style=" stroke:none;fill-rule:nonzero;fill:rgb(100%,50.196078%,50.196078%);fill-opacity:1;" d="M 15 0 C 6.714844 0 0 6.714844 0 15 C 0 23.285156 6.714844 30 15 30 C 16.242188 30 17.441406 29.839844 18.59375 29.554688 C 18.742188 29.390625 18.835938 29.1875 18.898438 28.863281 C 18.960938 28.519531 18.964844 28.0625 18.949219 27.539062 C 18.925781 26.484375 18.820312 25.148438 19.238281 23.734375 C 19.515625 22.792969 20.035156 21.824219 20.929688 20.929688 C 22.101562 19.753906 23.40625 19.230469 24.605469 19.039062 C 25.808594 18.84375 26.914062 18.945312 27.796875 18.957031 C 28.382812 18.96875 28.859375 18.929688 29.167969 18.820312 C 29.332031 18.761719 29.449219 18.691406 29.554688 18.59375 C 29.839844 17.441406 30 16.238281 30 15 C 30 6.714844 23.285156 0 15 0 Z M 11.839844 18.894531 L 10.855469 19.085938 C 10.789062 19.097656 10.746094 19.082031 10.699219 19.03125 L 8.019531 15.898438 L 7.976562 15.90625 L 8.667969 19.429688 C 8.679688 19.480469 8.652344 19.519531 8.601562 19.53125 L 7.667969 19.714844 C 7.621094 19.722656 7.582031 19.695312 7.570312 19.644531 L 6.5 14.199219 C 6.488281 14.148438 6.515625 14.109375 6.566406 14.097656 L 7.558594 13.902344 C 7.613281 13.890625 7.667969 13.90625 7.710938 13.960938 L 10.390625 17.101562 L 10.429688 17.09375 L 9.734375 13.5625 C 9.726562 13.511719 9.753906 13.472656 9.804688 13.460938 L 10.734375 13.277344 C 10.785156 13.269531 10.824219 13.292969 10.835938 13.34375 L 11.90625 18.792969 C 11.917969 18.84375 11.890625 18.882812 11.839844 18.894531 Z M 16.679688 17.941406 L 13.082031 18.648438 C 13.03125 18.660156 12.992188 18.632812 12.980469 18.582031 L 11.910156 13.132812 C 11.898438 13.082031 11.925781 13.042969 11.976562 13.035156 L 15.578125 12.328125 C 15.625 12.316406 15.664062 12.34375 15.675781 12.394531 L 15.847656 13.277344 C 15.859375 13.324219 15.832031 13.367188 15.78125 13.375 L 13.363281 13.851562 C 13.328125 13.855469 13.316406 13.875 13.324219 13.910156 L 13.542969 15.023438 C 13.546875 15.058594 13.566406 15.070312 13.601562 15.066406 L 15.617188 14.667969 C 15.664062 14.660156 15.707031 14.6875 15.714844 14.734375 L 15.886719 15.609375 C 15.898438 15.660156 15.871094 15.699219 15.820312 15.707031 L 13.804688 16.105469 C 13.773438 16.109375 13.757812 16.132812 13.765625 16.164062 L 13.996094 17.328125 C 14 17.363281 14.023438 17.375 14.054688 17.367188 L 16.472656 16.890625 C 16.523438 16.882812 16.5625 16.910156 16.574219 16.957031 L 16.746094 17.84375 C 16.757812 17.890625 16.730469 17.929688 16.679688 17.941406 Z M 22.710938 16.667969 C 22.710938 16.722656 22.675781 16.761719 22.617188 16.773438 L 21.792969 16.9375 C 21.734375 16.945312 21.695312 16.921875 21.667969 16.875 L 20.007812 13.574219 L 19.992188 13.578125 L 19.695312 17.261719 C 19.6875 17.316406 19.664062 17.355469 19.605469 17.367188 L 18.777344 17.527344 C 18.730469 17.539062 18.691406 17.511719 18.664062 17.464844 L 16.136719 12.300781 C 16.121094 12.253906 16.128906 12.21875 16.1875 12.207031 L 17.253906 11.996094 C 17.3125 11.984375 17.351562 12.011719 17.367188 12.058594 L 18.871094 15.425781 L 18.886719 15.421875 L 19.152344 11.710938 C 19.160156 11.65625 19.1875 11.617188 19.242188 11.605469 L 19.960938 11.464844 C 20.011719 11.453125 20.050781 11.480469 20.078125 11.527344 L 21.761719 14.859375 L 21.777344 14.855469 L 21.859375 11.175781 C 21.859375 11.117188 21.886719 11.085938 21.945312 11.074219 L 23 10.867188 C 23.058594 10.855469 23.082031 10.882812 23.082031 10.9375 Z M 22.710938 16.667969 "/>
</g>
</svg>
